<svg id="레이어_1" data-name="레이어 1" xmlns="http://www.w3.org/2000/svg" width="80" height="24" viewBox="0 0 80 24"><defs><style>.cls-1{fill:#3b80e0;}</style></defs><title>대지 3 사본</title><path class="cls-1" d="M38.84,0H3.48A3.5,3.5,0,0,0,0,3.48V16.23a3.5,3.5,0,0,0,3.48,3.48h8.84v3.46c0,1,1.44.93,2,.39l3.93-3.85h20.6a3.5,3.5,0,0,0,3.48-3.48V3.48A3.5,3.5,0,0,0,38.84,0ZM9.45,13.77a4,4,0,0,0,3.39-2,1.31,1.31,0,1,1,2.26,1.31,6.54,6.54,0,1,1,0-6.54,1.31,1.31,0,1,1-2.26,1.31,3.92,3.92,0,1,0-3.39,5.88Zm16,2.61H18.88a1.3,1.3,0,0,1-1.3-1.31V4.62a1.31,1.31,0,1,1,2.61,0v9.15h5.23a1.31,1.31,0,0,1,0,2.61Zm7.84,0a6.54,6.54,0,1,1,6.53-6.53A6.54,6.54,0,0,1,33.26,16.38Z"/><path class="cls-1" d="M33.26,5.93a3.92,3.92,0,1,0,3.91,3.92A3.92,3.92,0,0,0,33.26,5.93Z"/><path class="cls-1" d="M51.26,16.38H44.72a1.31,1.31,0,0,1,0-2.61h6.54a1.06,1.06,0,0,0,1.09-.54,2,2,0,0,0,.21-.78c0-.7-.27-.94-.53-1.08a2.06,2.06,0,0,0-.78-.22H47.34a3.8,3.8,0,0,1-3.92-3.91,3.81,3.81,0,0,1,3.92-3.93h5.22a1.31,1.31,0,0,1,0,2.62H47.35a1.92,1.92,0,0,0-.78.21c-.27.15-.54.39-.54,1.1a1.06,1.06,0,0,0,.54,1.09,1.92,1.92,0,0,0,.78.21h3.91a3.81,3.81,0,0,1,3.92,3.92,3.82,3.82,0,0,1-3.92,3.92"/><path class="cls-1" d="M65.63,13.77H60.41a2,2,0,0,1-.78-.22c-.27-.14-.53-.39-.53-1.09s.26-1,.53-1.09a2,2,0,0,1,.78-.22h3.91a1.31,1.31,0,0,0,1.31-1.3h0a1.29,1.29,0,0,0,0-.19,1.31,1.31,0,0,0-.76-1,1.45,1.45,0,0,0-.51-.1H60.41a2,2,0,0,1-.78-.21c-.27-.15-.53-.39-.53-1.09s.26-1,.53-1.1a2,2,0,0,1,.78-.21h5.22a1.31,1.31,0,0,0,0-2.61H60.4a3.81,3.81,0,0,0-3.92,3.92,3.79,3.79,0,0,0,.94,2.61,3.77,3.77,0,0,0-.94,2.61,3.81,3.81,0,0,0,3.92,3.92h5.23a1.31,1.31,0,0,0,0-2.61Z"/><path class="cls-1" d="M76.58,11.11A3.74,3.74,0,0,0,80,7.24a3.81,3.81,0,0,0-3.92-3.93H72.16a3.82,3.82,0,0,0-3.92,3.93v7.83a1.31,1.31,0,1,0,2.61,0V7.24c0-.71.27-1,.54-1.1a2,2,0,0,1,.78-.21h3.9a2,2,0,0,1,.78.21c.27.15.54.39.54,1.1a1.06,1.06,0,0,1-.54,1.09,2,2,0,0,1-.78.21h-2.6a1.44,1.44,0,0,0-.5.1,1,1,0,0,0-.32.22.39.39,0,0,0-.11.06s0,0,0,0a1.22,1.22,0,0,0-.26.38,1.36,1.36,0,0,0,0,1,1.37,1.37,0,0,0,.29.42L77.77,16a1.31,1.31,0,0,0,.92.38,1.33,1.33,0,0,0,.93-.38,1.31,1.31,0,0,0,0-1.85Z"/></svg>